# Wavefront OBJ file made by Mineways version 9.01, http://mineways.com
# World: [Block Test World]
# Terrain file name: D:\Program Files\mineways\terrainExt_LunaHD.png
# Color scheme: Standard
# Mon Jan 17 13:30:54 2022

# Selection location min to max: 2, 19, 37 to 17, 255, 41
#   Non-empty selection location min to max: 2, 19, 37 to 17, 24, 41

# Set 3D print type: Wavefront OBJ relative indices
#   if made using the full color sandstone material:     $ 3.71
# For colored sandstone printer, minimum wall is 2 mm, maximum size is 38 x 25 x 20 cm
# Units for the model vertex data itself: millimeters

# world dimensions: 3.20 x 1.20 x 1.00 cm
#   in inches: 1.26 x 0.47 x 0.39 inches
# each block is 2.00 mm on a side, and has a volume of 8 mm^3
# sum of dimensions: 54 mm
# volume is 0.784 cm^3
# surface area is 10.64 cm^2
# block density: 20% of volume

# 259 vertices, 266 faces (532 triangles), 98 blocks
# block dimensions: X=16 by Y=6 (height) by Z=5 blocks
# Elevation shading: no
# Lighting: no
# Transparent water: no
# Map grid: no
# File type: Export full color texture patterns
# Texture output RGB: YES
# Texture output A: no
# Texture output RGBA: no
# OBJ relative coordinates
# Make groups objects: no
# Export separate objects: no
# Individual blocks: no
#   Split by block type: no
# G3D full material: no
# Make Z the up direction instead of Y: YES
# Center model: YES
# Export lesser blocks: no
# Use biomes: no
# Rotate model 0.000000 degrees
# Scale model by making each block 2 mm high
# Data operation options:
#   Fill air bubbles: YES; Seal off entrances: no; Fill in isolated tunnels in base of model: no
#   Connect parts sharing an edge: YES; Connect corner tips: YES; Weld all shared edges: no
#   Delete floating objects: trees and parts smaller than 16 blocks: YES
#   Hollow out bottom of model, making the walls 2 mm thick: YES; Superhollow: YES
# Melt snow blocks: no
#   Debug: show separate parts as colors: no
#   Debug: show weld blocks in bright colors: no

# Cleanup processing summary:
#   Solid parts: 1
#   Air bubbles found and filled (with glass): 0
#   Total solid parts merged: 6
#   Number of edge passes made: 2
#     Edges found to fix: 16
#     Weld blocks added: 9
#     Tip blocks added: 0
#   Floating parts removed: 0
#     In these floaters, total blocks removed: 0
#   Blocks removed by hollowing: 0
#   Blocks removed by further super-hollowing (i.e. not just vertical hollowing): 0

# Full world path: E:\Minecraft-V1.17.1\.minecraft\saves\
# Full terrainExt.png path: D:\Program Files\mineways\terrainExt_LunaHD.png
# Full current path: D:\Program Files\mineways

mtllib HighSpeedFurnace.mtl

o __2_19_37_to_17_255_41
vn -1 -0 0
vn 0 -0 -1
vn 0 1 0
vn 1 -0 0
vn 0 -0 1
vn 0 -1 0
# hopper_outside
vt 0.199707031 0.917480469
vt 0.215332031 0.917480469
vt 0.215332031 0.933105469
vt 0.199707031 0.933105469
# hopper_inside
vt 0.183105469 0.917480469
vt 0.198730469 0.917480469
vt 0.198730469 0.933105469
vt 0.183105469 0.933105469
# white_concrete
vt 0.730957031 0.867675781
vt 0.746582031 0.867675781
vt 0.746582031 0.883300781
vt 0.730957031 0.883300781
# furnace_side
vt 0.747558594 0.983886719
vt 0.763183594 0.983886719
vt 0.763183594 0.999511719
vt 0.747558594 0.999511719
# furnace_front
vt 0.730957031 0.983886719
vt 0.746582031 0.983886719
vt 0.746582031 0.999511719
vt 0.730957031 0.999511719
# Lever type
vt 0.664550781 0.751464844
vt 0.680175781 0.751464844
vt 0.680175781 0.767089844
vt 0.664550781 0.767089844
# Powered Rail type
vt 0.681152344 0.751464844
vt 0.696777344 0.751464844
vt 0.696777344 0.767089844
vt 0.681152344 0.767089844
# quartz_block_side
vt 0.631347656 0.917480469
vt 0.646972656 0.917480469
vt 0.646972656 0.933105469
vt 0.631347656 0.933105469
# quartz_block_top
vt 0.647949219 0.917480469
vt 0.663574219 0.917480469
vt 0.663574219 0.933105469
vt 0.647949219 0.933105469
# Redstone Torch (active) type
vt 0.697753906 0.751464844
vt 0.713378906 0.751464844
vt 0.713378906 0.767089844
vt 0.697753906 0.767089844
# hopper_top
vt 0.216308594 0.917480469
vt 0.231933594 0.917480469
vt 0.231933594 0.933105469
vt 0.216308594 0.933105469
# Rail type
vt 0.714355469 0.751464844
vt 0.729980469 0.751464844
vt 0.729980469 0.767089844
vt 0.714355469 0.767089844
# quartz_block_bottom
vt 0.548339844 0.917480469
vt 0.563964844 0.917480469
vt 0.563964844 0.933105469
vt 0.548339844 0.933105469
# furnace_top
vt 0.033691406 0.967285156
vt 0.049316406 0.967285156
vt 0.049316406 0.982910156
vt 0.033691406 0.982910156
# MWO_chest_side
vt 0.432128906 0.983886719
vt 0.447753906 0.983886719
vt 0.447753906 0.999511719
vt 0.432128906 0.999511719
# MWO_double_chest_front_right
vt 0.697753906 0.983886719
vt 0.713378906 0.983886719
vt 0.713378906 0.999511719
vt 0.697753906 0.999511719
# Powered Rail type
vt 0.730957031 0.751464844
vt 0.746582031 0.751464844
vt 0.746582031 0.767089844
vt 0.730957031 0.767089844
# MWO_double_chest_top_right
vt 0.896972656 0.934082031
vt 0.912597656 0.934082031
vt 0.912597656 0.949707031
vt 0.896972656 0.949707031
# Rail type
vt 0.747558594 0.751464844
vt 0.763183594 0.751464844
vt 0.763183594 0.767089844
vt 0.747558594 0.767089844
# MWO_double_chest_back_left
vt 0.946777344 0.983886719
vt 0.962402344 0.983886719
vt 0.962402344 0.999511719
vt 0.946777344 0.999511719
# Lever type
vt 0.764160156 0.751464844
vt 0.779785156 0.751464844
vt 0.779785156 0.767089844
vt 0.764160156 0.767089844
v -16 -0 4
v -16 -2 4
v -16 -2 6
v -16 -0 6
v -14 -2 4
v -14 -0 4
v -14 -0 6
v -16 -2 8
v -16 -0 8
v -14 -0 8
v -14 -2 8
v -14 -2 6
v -16 -4 4
v -16 -4 6
v -14 -4 4
v -14 -4 6
v -14 -0 0
v -14 -2 0
v -14 -2 2
v -14 -0 2
v -12 -2 0
v -12 -0 0
v -12 -0 2
v -12 -2 2
v -12 -0 4
v -12 -0 6
v -12 -0 8
v -12 -2 6
v -12 -2 8
v -14 -4 2
v -12 -4 2
v -12 -4 4
v -12 -2 4
v -12 -4 6
v -14 -4 8
v -12 -4 8
v -10 -2 0
v -10 -0 0
v -10 -0 2
v -10 -2 2
v -10 -0 4
v -10 -0 6
v -10 -2 6
v -10 -2 4
v -10 -4 2
v -10 -4 4
v -8 -2 0
v -8 -0 0
v -8 -0 2
v -8 -2 2
v -8 -0 4
v -8 -0 6
v -8 -2 6
v -8 -2 4
v -8 -4 2
v -8 -4 4
v -6 -2 0
v -6 -0 0
v -6 -0 2
v -6 -2 2
v -6 -0 4
v -6 -0 6
v -6 -2 6
v -6 -2 4
v -6 -4 2
v -6 -4 4
v -4 -2 0
v -4 -0 0
v -4 -0 2
v -4 -2 2
v -4 -0 4
v -4 -0 6
v -4 -2 6
v -4 -2 4
v -4 -4 2
v -4 -4 4
v -2 -2 0
v -2 -0 0
v -2 -0 2
v -2 -2 2
v -2 -0 4
v -2 -0 6
v -2 -2 6
v -2 -2 4
v -2 -4 2
v -2 -4 4
v 0 -2 0
v 0 -0 0
v 0 -0 2
v 0 -2 2
v 0 -0 4
v 0 -0 6
v 0 -2 6
v 0 -2 4
v 0 -4 2
v 0 -4 4
v 2 -2 0
v 2 -0 0
v 2 -0 2
v 2 -2 2
v 2 -0 4
v 2 -0 6
v 2 -2 6
v 2 -2 4
v 2 -4 2
v 2 -4 4
v 2 4 2
v 2 2 2
v 2 2 4
v 2 4 4
v 4 2 2
v 4 4 2
v 4 4 4
v 4 2 4
v 2 2 0
v 4 -0 0
v 4 2 0
v 4 -0 2
v 4 -0 4
v 4 -2 0
v 4 -2 2
v 4 -0 6
v 4 -2 6
v 4 -2 4
v 4 -4 2
v 4 -4 4
v 6 -0 2
v 6 2 2
v 6 2 4
v 6 -0 4
v 4 2 6
v 6 2 6
v 4 -0 8
v 4 2 8
v 6 2 8
v 6 -0 6
v 6 -0 8
v 6 -2 0
v 6 -0 0
v 6 -2 2
v 6 -2 4
v 6 -2 6
v 6 -4 2
v 6 -4 4
v 8 -0 4
v 8 2 4
v 8 2 6
v 8 -0 6
v 8 -2 0
v 8 -0 0
v 8 -0 2
v 8 -2 2
v 8 -2 4
v 8 -2 6
v 8 -4 2
v 8 -4 4
v 8 2 0
v 8 2 2
v 10 -0 0
v 10 2 0
v 10 2 2
v 10 -0 2
v 10 2 4
v 10 -0 4
v 10 2 6
v 8 -0 8
v 8 2 8
v 10 2 8
v 10 -0 6
v 10 -0 8
v 8 -0 10
v 8 2 10
v 10 2 10
v 8 -0 12
v 8 2 12
v 10 2 12
v 10 -0 12
v 10 -2 0
v 10 -2 2
v 10 -2 4
v 10 -2 6
v 8 -2 8
v 8 -2 10
v 10 -2 8
v 8 -2 12
v 10 -2 12
v 8 -4 6
v 10 -4 4
v 10 -4 6
v 8 -4 8
v 8 -4 10
v 10 -4 8
v 10 -4 10
v 8 -4 12
v 10 -4 12
v 10 4 4
v 10 4 6
v 12 2 4
v 12 4 4
v 12 4 6
v 10 4 8
v 12 4 8
v 12 2 6
v 12 2 8
v 10 4 10
v 12 4 10
v 12 2 10
v 10 4 12
v 12 4 12
v 12 2 12
v 12 -0 4
v 12 -0 6
v 12 -0 8
v 12 -0 10
v 12 -0 12
v 12 -2 4
v 12 -2 6
v 12 -2 8
v 12 -2 10
v 12 -2 12
v 12 -4 6
v 12 -4 8
v 12 -4 10
v 12 -4 12
v 10 -6 4
v 10 -6 6
v 12 -6 4
v 12 -4 4
v 12 -6 6
v 10 -6 8
v 12 -6 8
v 10 -6 10
v 12 -6 10
v 10 -6 12
v 12 -6 12
v 14 2 4
v 14 4 4
v 14 4 6
v 14 2 6
v 14 -0 4
v 14 -0 6
v 14 -2 4
v 14 -2 6
v 14 -4 4
v 14 -4 6
v 14 -6 4
v 14 -6 6
v 16 2 4
v 16 4 4
v 16 4 6
v 16 2 6
v 16 -0 4
v 16 -0 6
v 16 -2 4
v 16 -2 6
v 16 -4 4
v 16 -4 6
v 16 -6 4
v 16 -6 6

usemtl MC_material
f -232/-59/-2 -217/-58/-2 -218/-57/-2 -234/-60/-2
f -228/-59/-2 -214/-58/-2 -216/-57/-2 -227/-60/-2
f -217/-59/-2 -207/-58/-2 -208/-57/-2 -218/-60/-2
f -214/-59/-2 -204/-58/-2 -206/-57/-2 -216/-60/-2
f -207/-59/-2 -197/-58/-2 -198/-57/-2 -208/-60/-2
f -204/-59/-2 -194/-58/-2 -196/-57/-2 -206/-60/-2
f -197/-59/-2 -187/-58/-2 -188/-57/-2 -198/-60/-2
f -194/-59/-2 -184/-58/-2 -186/-57/-2 -196/-60/-2
f -187/-59/-2 -177/-58/-2 -178/-57/-2 -188/-60/-2
f -184/-59/-2 -174/-58/-2 -176/-57/-2 -186/-60/-2
f -177/-59/-2 -167/-58/-2 -168/-57/-2 -178/-60/-2
f -174/-59/-2 -164/-58/-2 -166/-57/-2 -176/-60/-2
f -167/-59/-2 -157/-58/-2 -158/-57/-2 -168/-60/-2
f -164/-59/-2 -154/-58/-2 -156/-57/-2 -166/-60/-2
f -157/-59/-2 -137/-58/-2 -138/-57/-2 -158/-60/-2
f -154/-59/-2 -134/-58/-2 -136/-57/-2 -156/-60/-2
f -137/-59/-2 -118/-58/-2 -124/-57/-2 -138/-60/-2
f -134/-59/-2 -116/-58/-2 -119/-57/-2 -136/-60/-2
f -106/-19/-2 -79/-18/-2 -91/-17/-2 -112/-20/-2
f -73/-19/-2 -71/-18/-2 -79/-17/-2 -106/-20/-2
f -117/-36/-5 -120/-33/-5 -108/-34/-5 -105/-35/-5
f -108/-56/-4 -120/-55/-4 -119/-54/-4 -107/-53/-4
f -105/-56/-3 -108/-55/-3 -107/-54/-3 -104/-53/-3
f -105/-55/-1 -104/-54/-1 -116/-53/-1 -117/-56/-1
f -89/-55/-6 -86/-54/-6 -85/-53/-6 -88/-56/-6
f -87/-56/-4 -88/-55/-4 -85/-54/-4 -84/-53/-4
f -86/-52/-2 -83/-51/-2 -84/-50/-2 -85/-49/-2
f -77/-55/-6 -75/-54/-6 -86/-53/-6 -89/-56/-6
f -75/-52/-2 -74/-51/-2 -83/-50/-2 -86/-49/-2
f -69/-55/-6 -66/-54/-6 -75/-53/-6 -77/-56/-6
f -66/-52/-2 -65/-51/-2 -74/-50/-2 -75/-49/-2
f -67/-55/-1 -65/-54/-1 -66/-53/-1 -69/-56/-1
f -46/-56/-3 -53/-55/-3 -50/-54/-3 -45/-53/-3
f -83/-52/-2 -45/-51/-2 -50/-50/-2 -84/-49/-2
f -41/-56/-3 -46/-55/-3 -45/-54/-3 -40/-53/-3
f -74/-52/-2 -40/-51/-2 -45/-50/-2 -83/-49/-2
f -37/-56/-3 -41/-55/-3 -40/-54/-3 -36/-53/-3
f -65/-52/-2 -36/-51/-2 -40/-50/-2 -74/-49/-2
f -94/-27/-6 -89/-26/-6 -88/-25/-6 -93/-28/-6
f -92/-24/-4 -93/-23/-4 -88/-22/-4 -87/-21/-4
f -78/-27/-6 -77/-26/-6 -89/-25/-6 -94/-28/-6
f -78/-14/-5 -94/-15/-5 -90/-16/-5 -76/-13/-5
f -70/-27/-6 -69/-26/-6 -77/-25/-6 -78/-28/-6
f -70/-14/-5 -78/-15/-5 -76/-16/-5 -68/-13/-5
f -68/-7/-1 -67/-6/-1 -69/-5/-1 -70/-8/-1
f -47/-28/-3 -56/-27/-3 -53/-26/-3 -46/-25/-3
f -42/-28/-3 -47/-27/-3 -46/-26/-3 -41/-25/-3
f -38/-28/-3 -42/-27/-3 -41/-26/-3 -37/-25/-3
f -241/-71/-6 -255/-70/-6 -254/-69/-6 -240/-72/-6
f -237/-68/-4 -240/-67/-4 -254/-66/-4 -235/-65/-4
f -221/-68/-4 -237/-67/-4 -235/-66/-4 -219/-65/-4
f -211/-68/-4 -221/-67/-4 -219/-66/-4 -209/-65/-4
f -201/-68/-4 -211/-67/-4 -209/-66/-4 -199/-65/-4
f -191/-68/-4 -201/-67/-4 -199/-66/-4 -189/-65/-4
f -181/-68/-4 -191/-67/-4 -189/-66/-4 -179/-65/-4
f -171/-68/-4 -181/-67/-4 -179/-66/-4 -169/-65/-4
f -161/-68/-4 -171/-67/-4 -169/-66/-4 -159/-65/-4
f -120/-72/-3 -133/-71/-3 -130/-70/-3 -119/-69/-3
f -118/-39/-2 -106/-38/-2 -112/-37/-2 -124/-40/-2
f -116/-39/-2 -104/-38/-2 -107/-37/-2 -119/-40/-2
f -104/-11/-6 -73/-10/-6 -106/-9/-6 -107/-12/-6
f -226/-64/-3 -232/-63/-3 -231/-62/-3 -224/-61/-3
f -43/-4/-3 -48/-3/-3 -47/-2/-3 -42/-1/-3
f -39/-4/-3 -43/-3/-3 -42/-2/-3 -38/-1/-3
f -133/-48/-3 -132/-47/-3 -131/-46/-3 -130/-45/-3
f -124/-48/-3 -128/-47/-3 -125/-46/-3 -123/-45/-3
f -258/-83/-6 -257/-82/-6 -256/-81/-6 -259/-84/-6
f -258/-80/-5 -259/-77/-5 -254/-78/-5 -255/-79/-5
f -254/-84/-4 -259/-83/-4 -256/-82/-4 -253/-81/-4
f -242/-83/-6 -241/-82/-6 -240/-81/-6 -243/-84/-6
f -242/-80/-5 -243/-77/-5 -238/-78/-5 -239/-79/-5
f -238/-84/-4 -243/-83/-4 -240/-82/-4 -237/-81/-4
f -239/-83/-1 -236/-82/-1 -241/-81/-1 -242/-84/-1
f -235/-84/-4 -254/-83/-4 -253/-82/-4 -234/-81/-4
f -230/-83/-6 -245/-82/-6 -255/-81/-6 -241/-84/-6
f -230/-80/-5 -241/-77/-5 -236/-78/-5 -229/-79/-5
f -229/-83/-1 -228/-82/-1 -245/-81/-1 -230/-84/-1
f -239/-80/-5 -238/-77/-5 -222/-78/-5 -223/-79/-5
f -222/-84/-4 -238/-83/-4 -237/-82/-4 -221/-81/-4
f -223/-83/-1 -220/-82/-1 -236/-81/-1 -239/-84/-1
f -219/-84/-4 -235/-83/-4 -234/-82/-4 -218/-81/-4
f -216/-83/-1 -217/-82/-1 -232/-81/-1 -227/-84/-1
f -229/-80/-5 -236/-77/-5 -220/-78/-5 -215/-79/-5
f -215/-83/-1 -214/-82/-1 -228/-81/-1 -229/-84/-1
f -223/-80/-5 -222/-77/-5 -212/-78/-5 -213/-79/-5
f -212/-84/-4 -222/-83/-4 -221/-82/-4 -211/-81/-4
f -213/-83/-1 -210/-82/-1 -220/-81/-1 -223/-84/-1
f -209/-84/-4 -219/-83/-4 -218/-82/-4 -208/-81/-4
f -206/-83/-1 -207/-82/-1 -217/-81/-1 -216/-84/-1
f -215/-80/-5 -220/-77/-5 -210/-78/-5 -205/-79/-5
f -205/-83/-1 -204/-82/-1 -214/-81/-1 -215/-84/-1
f -213/-80/-5 -212/-77/-5 -202/-78/-5 -203/-79/-5
f -202/-84/-4 -212/-83/-4 -211/-82/-4 -201/-81/-4
f -203/-83/-1 -200/-82/-1 -210/-81/-1 -213/-84/-1
f -199/-84/-4 -209/-83/-4 -208/-82/-4 -198/-81/-4
f -196/-83/-1 -197/-82/-1 -207/-81/-1 -206/-84/-1
f -205/-80/-5 -210/-77/-5 -200/-78/-5 -195/-79/-5
f -195/-83/-1 -194/-82/-1 -204/-81/-1 -205/-84/-1
f -203/-80/-5 -202/-77/-5 -192/-78/-5 -193/-79/-5
f -192/-84/-4 -202/-83/-4 -201/-82/-4 -191/-81/-4
f -193/-83/-1 -190/-82/-1 -200/-81/-1 -203/-84/-1
f -189/-84/-4 -199/-83/-4 -198/-82/-4 -188/-81/-4
f -186/-83/-1 -187/-82/-1 -197/-81/-1 -196/-84/-1
f -195/-80/-5 -200/-77/-5 -190/-78/-5 -185/-79/-5
f -185/-83/-1 -184/-82/-1 -194/-81/-1 -195/-84/-1
f -193/-80/-5 -192/-77/-5 -182/-78/-5 -183/-79/-5
f -182/-84/-4 -192/-83/-4 -191/-82/-4 -181/-81/-4
f -183/-83/-1 -180/-82/-1 -190/-81/-1 -193/-84/-1
f -179/-84/-4 -189/-83/-4 -188/-82/-4 -178/-81/-4
f -176/-83/-1 -177/-82/-1 -187/-81/-1 -186/-84/-1
f -185/-80/-5 -190/-77/-5 -180/-78/-5 -175/-79/-5
f -175/-83/-1 -174/-82/-1 -184/-81/-1 -185/-84/-1
f -183/-80/-5 -182/-77/-5 -172/-78/-5 -173/-79/-5
f -172/-84/-4 -182/-83/-4 -181/-82/-4 -171/-81/-4
f -173/-83/-1 -170/-82/-1 -180/-81/-1 -183/-84/-1
f -169/-84/-4 -179/-83/-4 -178/-82/-4 -168/-81/-4
f -166/-83/-1 -167/-82/-1 -177/-81/-1 -176/-84/-1
f -175/-80/-5 -180/-77/-5 -170/-78/-5 -165/-79/-5
f -165/-83/-1 -164/-82/-1 -174/-81/-1 -175/-84/-1
f -173/-80/-5 -172/-77/-5 -162/-78/-5 -163/-79/-5
f -162/-84/-4 -172/-83/-4 -171/-82/-4 -161/-81/-4
f -163/-83/-1 -160/-82/-1 -170/-81/-1 -173/-84/-1
f -159/-84/-4 -169/-83/-4 -168/-82/-4 -158/-81/-4
f -156/-83/-1 -157/-82/-1 -167/-81/-1 -166/-84/-1
f -165/-80/-5 -170/-77/-5 -160/-78/-5 -155/-79/-5
f -155/-83/-1 -154/-82/-1 -164/-81/-1 -165/-84/-1
f -163/-80/-5 -162/-77/-5 -144/-78/-5 -140/-79/-5
f -140/-83/-1 -139/-82/-1 -160/-81/-1 -163/-84/-1
f -141/-84/-4 -159/-83/-4 -158/-82/-4 -138/-81/-4
f -136/-83/-1 -137/-82/-1 -157/-81/-1 -156/-84/-1
f -155/-80/-5 -160/-77/-5 -139/-78/-5 -135/-79/-5
f -135/-83/-1 -134/-82/-1 -154/-81/-1 -155/-84/-1
f -140/-80/-5 -144/-77/-5 -121/-78/-5 -122/-79/-5
f -121/-84/-4 -144/-83/-4 -142/-82/-4 -133/-81/-4
f -122/-83/-1 -120/-82/-1 -139/-81/-1 -140/-84/-1
f -119/-83/-1 -118/-82/-1 -137/-81/-1 -136/-84/-1
f -135/-80/-5 -139/-77/-5 -120/-78/-5 -117/-79/-5
f -117/-83/-1 -116/-82/-1 -134/-81/-1 -135/-84/-1
f -122/-80/-5 -121/-77/-5 -110/-78/-5 -111/-79/-5
f -110/-84/-4 -121/-83/-4 -133/-82/-4 -109/-81/-4
f -120/-44/-2 -108/-43/-2 -109/-42/-2 -133/-41/-2
f -111/-83/-1 -108/-82/-1 -120/-81/-1 -122/-84/-1
f -111/-80/-5 -110/-77/-5 -101/-78/-5 -82/-79/-5
f -82/-84/-3 -101/-83/-3 -98/-82/-3 -81/-81/-3
f -108/-44/-2 -81/-43/-2 -98/-42/-2 -109/-41/-2
f -82/-83/-1 -81/-82/-1 -108/-81/-1 -111/-84/-1
f -152/-55/-6 -151/-54/-6 -150/-53/-6 -153/-56/-6
f -152/-52/-5 -153/-49/-5 -148/-50/-5 -149/-51/-5
f -148/-56/-4 -153/-55/-4 -150/-54/-4 -147/-53/-4
f -149/-56/-3 -148/-55/-3 -147/-54/-3 -146/-53/-3
f -151/-52/-2 -146/-51/-2 -147/-50/-2 -150/-49/-2
f -162/-55/-6 -161/-54/-6 -152/-53/-6 -145/-56/-6
f -162/-52/-5 -145/-49/-5 -143/-50/-5 -144/-51/-5
f -143/-56/-4 -145/-55/-4 -152/-54/-4 -149/-53/-4
f -144/-56/-3 -143/-55/-3 -149/-54/-3 -142/-53/-3
f -161/-55/-6 -159/-54/-6 -151/-53/-6 -152/-56/-6
f -159/-52/-2 -141/-51/-2 -146/-50/-2 -151/-49/-2
f -142/-52/-5 -149/-49/-5 -132/-50/-5 -133/-51/-5
f -132/-56/-4 -149/-55/-4 -146/-54/-4 -131/-53/-4
f -141/-55/-6 -138/-54/-6 -129/-53/-6 -146/-56/-6
f -131/-56/-4 -146/-55/-4 -129/-54/-4 -128/-53/-4
f -138/-55/-6 -127/-54/-6 -126/-53/-6 -129/-56/-6
f -128/-56/-4 -129/-55/-4 -126/-54/-4 -125/-53/-4
f -127/-52/-2 -123/-51/-2 -125/-50/-2 -126/-49/-2
f -124/-55/-1 -123/-54/-1 -127/-53/-1 -138/-56/-1
f -130/-52/-5 -131/-49/-5 -114/-50/-5 -115/-51/-5
f -114/-56/-4 -131/-55/-4 -128/-54/-4 -113/-53/-4
f -124/-52/-2 -112/-51/-2 -113/-50/-2 -128/-49/-2
f -119/-52/-5 -130/-49/-5 -115/-50/-5 -107/-51/-5
f -107/-55/-1 -106/-54/-1 -118/-53/-1 -119/-56/-1
f -107/-52/-5 -115/-49/-5 -96/-50/-5 -80/-51/-5
f -104/-52/-5 -107/-49/-5 -80/-50/-5 -72/-51/-5
f -72/-56/-3 -80/-55/-3 -79/-54/-3 -71/-53/-3
f -72/-55/-1 -71/-54/-1 -73/-53/-1 -104/-56/-1
f -80/-52/-5 -96/-49/-5 -49/-50/-5 -44/-51/-5
f -44/-55/-1 -43/-54/-1 -79/-53/-1 -80/-56/-1
f -110/-31/-6 -109/-30/-6 -102/-29/-6 -103/-32/-6
f -110/-32/-5 -103/-29/-5 -100/-30/-5 -101/-31/-5
f -100/-32/-4 -103/-31/-4 -102/-30/-4 -99/-29/-4
f -101/-32/-3 -100/-31/-3 -99/-30/-3 -98/-29/-3
f -109/-31/-6 -115/-30/-6 -114/-29/-6 -102/-32/-6
f -99/-32/-4 -102/-31/-4 -114/-30/-4 -97/-29/-4
f -98/-32/-3 -99/-31/-3 -97/-30/-3 -96/-29/-3
f -98/-31/-1 -96/-30/-1 -115/-29/-1 -109/-32/-1
f -97/-32/-4 -114/-31/-4 -113/-30/-4 -95/-29/-4
f -112/-31/-6 -94/-30/-6 -93/-29/-6 -113/-32/-6
f -95/-32/-4 -113/-31/-4 -93/-30/-4 -92/-29/-4
f -91/-31/-1 -90/-30/-1 -94/-29/-1 -112/-32/-1
f -96/-32/-5 -97/-29/-5 -62/-30/-5 -49/-31/-5
f -257/-75/-6 -252/-74/-6 -251/-73/-6 -256/-76/-6
f -253/-76/-4 -256/-75/-4 -251/-74/-4 -250/-73/-4
f -252/-76/-2 -249/-75/-2 -250/-74/-2 -251/-73/-2
f -248/-75/-1 -249/-74/-1 -252/-73/-1 -257/-76/-1
f -247/-75/-6 -246/-74/-6 -257/-73/-6 -258/-76/-6
f -247/-76/-5 -258/-73/-5 -255/-74/-5 -245/-75/-5
f -246/-76/-2 -244/-75/-2 -248/-74/-2 -257/-73/-2
f -245/-75/-1 -244/-74/-1 -246/-73/-1 -247/-76/-1
f -234/-76/-4 -253/-75/-4 -250/-74/-4 -233/-73/-4
f -232/-76/-3 -234/-75/-3 -233/-74/-3 -231/-73/-3
f -249/-76/-2 -231/-75/-2 -233/-74/-2 -250/-73/-2
f -228/-76/-3 -227/-75/-3 -232/-74/-3 -226/-73/-3
f -228/-75/-1 -226/-74/-1 -244/-73/-1 -245/-76/-1
f -244/-75/-6 -225/-74/-6 -249/-73/-6 -248/-76/-6
f -225/-76/-2 -224/-75/-2 -231/-74/-2 -249/-73/-2
f -226/-75/-1 -224/-74/-1 -225/-73/-1 -244/-76/-1
f -97/-75/-6 -95/-74/-6 -63/-73/-6 -64/-76/-6
f -97/-76/-5 -64/-73/-5 -61/-74/-5 -62/-75/-5
f -61/-76/-4 -64/-75/-4 -63/-74/-4 -60/-73/-4
f -95/-75/-6 -92/-74/-6 -59/-73/-6 -63/-76/-6
f -60/-76/-4 -63/-75/-4 -59/-74/-4 -58/-73/-4
f -57/-76/-3 -60/-75/-3 -58/-74/-3 -56/-73/-3
f -92/-75/-6 -87/-74/-6 -55/-73/-6 -59/-76/-6
f -58/-76/-4 -59/-75/-4 -55/-74/-4 -54/-73/-4
f -56/-76/-3 -58/-75/-3 -54/-74/-3 -53/-73/-3
f -87/-75/-6 -84/-74/-6 -52/-73/-6 -55/-76/-6
f -54/-76/-4 -55/-75/-4 -52/-74/-4 -51/-73/-4
f -53/-76/-3 -54/-75/-3 -51/-74/-3 -50/-73/-3
f -84/-76/-2 -50/-75/-2 -51/-74/-2 -52/-73/-2
f -48/-76/-3 -57/-75/-3 -56/-74/-3 -47/-73/-3
f -79/-75/-6 -76/-74/-6 -90/-73/-6 -91/-76/-6
f -71/-75/-6 -68/-74/-6 -76/-73/-6 -79/-76/-6
f -71/-76/-5 -79/-73/-5 -43/-74/-5 -39/-75/-5
f -35/-75/-6 -34/-74/-6 -71/-73/-6 -72/-76/-6
f -35/-76/-5 -72/-73/-5 -32/-74/-5 -33/-75/-5
f -32/-76/-4 -72/-75/-4 -71/-74/-4 -39/-73/-4
f -33/-75/-1 -31/-74/-1 -34/-73/-1 -35/-76/-1
f -34/-75/-6 -30/-74/-6 -68/-73/-6 -71/-76/-6
f -31/-76/-3 -39/-75/-3 -38/-74/-3 -29/-73/-3
f -31/-75/-1 -29/-74/-1 -30/-73/-1 -34/-76/-1
f -30/-75/-6 -28/-74/-6 -67/-73/-6 -68/-76/-6
f -29/-76/-3 -38/-75/-3 -37/-74/-3 -27/-73/-3
f -29/-75/-1 -27/-74/-1 -28/-73/-1 -30/-76/-1
f -28/-75/-6 -26/-74/-6 -65/-73/-6 -67/-76/-6
f -27/-76/-3 -37/-75/-3 -36/-74/-3 -25/-73/-3
f -26/-76/-2 -25/-75/-2 -36/-74/-2 -65/-73/-2
f -27/-75/-1 -25/-74/-1 -26/-73/-1 -28/-76/-1
f -62/-76/-5 -61/-73/-5 -23/-74/-5 -24/-75/-5
f -23/-76/-4 -61/-75/-4 -60/-74/-4 -22/-73/-4
f -57/-76/-2 -21/-75/-2 -22/-74/-2 -60/-73/-2
f -49/-76/-5 -62/-73/-5 -24/-74/-5 -20/-75/-5
f -48/-76/-2 -19/-75/-2 -21/-74/-2 -57/-73/-2
f -44/-76/-5 -49/-73/-5 -20/-74/-5 -18/-75/-5
f -43/-76/-2 -17/-75/-2 -19/-74/-2 -48/-73/-2
f -32/-75/-6 -39/-74/-6 -43/-73/-6 -44/-76/-6
f -32/-76/-5 -44/-73/-5 -18/-74/-5 -16/-75/-5
f -39/-76/-2 -15/-75/-2 -17/-74/-2 -43/-73/-2
f -33/-76/-5 -32/-73/-5 -16/-74/-5 -14/-75/-5
f -31/-76/-2 -13/-75/-2 -15/-74/-2 -39/-73/-2
f -14/-75/-1 -13/-74/-1 -31/-73/-1 -33/-76/-1
f -24/-76/-5 -23/-73/-5 -11/-74/-5 -12/-75/-5
f -11/-76/-4 -23/-75/-4 -22/-74/-4 -10/-73/-4
f -12/-76/-3 -11/-75/-3 -10/-74/-3 -9/-73/-3
f -21/-76/-2 -9/-75/-2 -10/-74/-2 -22/-73/-2
f -20/-76/-5 -24/-73/-5 -12/-74/-5 -8/-75/-5
f -8/-76/-3 -12/-75/-3 -9/-74/-3 -7/-73/-3
f -19/-76/-2 -7/-75/-2 -9/-74/-2 -21/-73/-2
f -18/-76/-5 -20/-73/-5 -8/-74/-5 -6/-75/-5
f -6/-76/-3 -8/-75/-3 -7/-74/-3 -5/-73/-3
f -17/-76/-2 -5/-75/-2 -7/-74/-2 -19/-73/-2
f -16/-76/-5 -18/-73/-5 -6/-74/-5 -4/-75/-5
f -4/-76/-3 -6/-75/-3 -5/-74/-3 -3/-73/-3
f -15/-76/-2 -3/-75/-2 -5/-74/-2 -17/-73/-2
f -14/-76/-5 -16/-73/-5 -4/-74/-5 -2/-75/-5
f -2/-76/-3 -4/-75/-3 -3/-74/-3 -1/-73/-3
f -13/-76/-2 -1/-75/-2 -3/-74/-2 -15/-73/-2
f -2/-75/-1 -1/-74/-1 -13/-73/-1 -14/-76/-1
