# Wavefront OBJ file made by Mineways version 9.01, http://mineways.com
# World: [Block Test World]
# Terrain file name: D:\Program Files\mineways\terrainExt.png
# Color scheme: Standard
# Tue Feb  8 10:45:38 2022

# Selection location min to max: -2, 18, 4 to 3, 255, 7
#   Non-empty selection location min to max: -2, 18, 4 to 3, 23, 7

# Set render type: Wavefront OBJ absolute indices
# Units for the model vertex data itself: meters

# 297 vertices, 206 faces (412 triangles), 34 blocks, 31 billboards/bits
# block dimensions: X=7 by Y=6 (height) by Z=5 blocks
# Elevation shading: no
# Lighting: no
# Transparent water: no
# Map grid: no
# File type: Export full color texture patterns
# Texture output RGB: YES
# Texture output A: YES
# Texture output RGBA: YES
# Make groups objects: no
# Export separate objects: YES
# Individual blocks: no
#   Material per family: YES
#   Split by block type: no
# G3D full material: YES
# Make Z the up direction instead of Y: no
# Create composite overlay faces: no
# Center model: YES
# Export lesser blocks: YES
# Fatten lesser blocks: no
# Create block faces at the borders: YES
# Make tree leaves solid: no
# Use biomes: no
# Rotate model 0.000000 degrees
# Scale model by making each block 1000 mm high
# Data operation options:
#   Fill air bubbles: no; Seal off entrances: no; Fill in isolated tunnels in base of model: no
#   Connect parts sharing an edge: no; Connect corner tips: no; Weld all shared edges: no
#   Delete floating objects: trees and parts smaller than 16 blocks: no
#   Hollow out bottom of model, making the walls 1000 mm thick: no; Superhollow: no
# Melt snow blocks: no
#   Debug: show separate parts as colors: no
#   Debug: show weld blocks in bright colors: no

# Full world path: E:\Minecraft-V1.17.1\.minecraft\saves\
# Full terrainExt.png path: D:\Program Files\mineways\terrainExt.png
# Full current path: D:\Program Files\mineways

mtllib 2x2HideDoor.mtl

o __-2_18_4_to_3_255_7
vn -1 0 0
vn 0 -1 0
vn 0 0 -1
vn 1 0 0
vn 0 1 0
vn 0 0 1
vn -0.707107 0 -0.707107
vn -0.707107 0 0.707107
vn 0.707107 0 -0.707107
vn 0.707107 0 0.707107
vn -0.707107 -0.707107 0
vn 0 -0.707107 -0.707107
vn 0.707107 -0.707107 0
vn 0 -0.707107 0.707107
vn -0.707107 0.707107 0
vn 0 0.707107 -0.707107
vn 0.707107 0.707107 0
vn 0 0.707107 0.707107
vn -0.92388 0 -0.382683
vn -0.92388 0 0.382683
vn 0.92388 0 -0.382683
vn 0.92388 0 0.382683
vn -0.382683 0 -0.92388
vn -0.382683 0 0.92388
vn 0.382683 0 -0.92388
vn 0.382683 0 0.92388
vn -0.397273 0.9177 0
vn 0.397273 -0.9177 0
vn 0.397273 0.9177 0
vn -0.397273 -0.9177 0
vn 0 0.9177 -0.397273
vn 0 -0.9177 0.397273
vn 0 0.9177 0.397273
vn 0 -0.9177 -0.397273
vn -0.440932 0.897541 0
vn 0.440932 -0.897541 0
vn 0.440932 0.897541 0
vn -0.440932 -0.897541 0
vn 0 0.897541 -0.440932
vn 0 -0.897541 0.440932
vn 0 0.897541 0.440932
vn 0 -0.897541 -0.440932
# stone
vt 0.023437500 0.989257812
vt 0.030273438 0.989257812
vt 0.030273438 0.993164062
vt 0.023437500 0.993164062
vt 0.032226562 0.987304688
vt 0.034179688 0.987304688
vt 0.034179688 0.994140625
vt 0.032226562 0.994140625
vt 0.018554688 0.989257812
vt 0.020507812 0.989257812
vt 0.020507812 0.993164062
vt 0.018554688 0.993164062
vt 0.032226562 0.989257812
vt 0.034179688 0.989257812
vt 0.034179688 0.993164062
vt 0.032226562 0.993164062
# MWO_redstone_dust_dot_off
vt 0.633789062 0.860351562
vt 0.649414062 0.860351562
vt 0.649414062 0.875976562
vt 0.633789062 0.875976562
# repeater
vt 0.334960938 0.961914062
vt 0.350585938 0.961914062
vt 0.350585938 0.963867188
vt 0.334960938 0.963867188
vt 0.334960938 0.948242188
vt 0.350585938 0.948242188
# redstone_torch_off
vt 0.059570312 0.953125000
vt 0.063476562 0.953125000
vt 0.063476562 0.958984375
vt 0.059570312 0.958984375
vt 0.060546875 0.956054688
vt 0.062500000 0.956054688
vt 0.062500000 0.958007812
vt 0.060546875 0.958007812
vt 0.060546875 0.951171875
vt 0.062500000 0.951171875
vt 0.062500000 0.953125000
vt 0.060546875 0.953125000
# stone
vt 0.018554688 0.987304688
vt 0.020507812 0.987304688
vt 0.020507812 0.994140625
vt 0.018554688 0.994140625
vt 0.022460938 0.989257812
vt 0.029296875 0.989257812
vt 0.029296875 0.993164062
vt 0.022460938 0.993164062
# MWO_redstone_dust_line1_off
vt 0.616210938 0.860351562
vt 0.631835938 0.860351562
vt 0.631835938 0.875976562
vt 0.616210938 0.875976562
# MWO_redstone_dust_line0_off
vt 0.598632812 0.860351562
vt 0.614257812 0.860351562
vt 0.614257812 0.875976562
vt 0.598632812 0.875976562
# MWO_redstone_dust_angled_off
vt 0.651367188 0.860351562
vt 0.666992188 0.860351562
vt 0.666992188 0.875976562
vt 0.651367188 0.875976562
# slime_block
vt 0.334960938 0.877929688
vt 0.350585938 0.877929688
vt 0.350585938 0.893554688
vt 0.334960938 0.893554688
vt 0.337890625 0.880859375
vt 0.347656250 0.880859375
vt 0.347656250 0.890625000
vt 0.337890625 0.890625000
# quartz_block_side
vt 0.950195312 0.913085938
vt 0.965820312 0.913085938
vt 0.965820312 0.928710938
vt 0.950195312 0.928710938
# quartz_block_top
vt 0.967773438 0.913085938
vt 0.983398438 0.913085938
vt 0.983398438 0.928710938
vt 0.967773438 0.928710938
# obsidian
vt 0.651367188 0.983398438
vt 0.666992188 0.983398438
vt 0.666992188 0.999023438
vt 0.651367188 0.999023438
# piston_side
vt 0.915039062 0.965820312
vt 0.930664062 0.965820312
vt 0.930664062 0.981445312
vt 0.915039062 0.981445312
# piston_bottom
vt 0.932617188 0.965820312
vt 0.948242188 0.965820312
vt 0.948242188 0.981445312
vt 0.932617188 0.981445312
# piston_top_sticky
vt 0.879882812 0.965820312
vt 0.895507812 0.965820312
vt 0.895507812 0.981445312
vt 0.879882812 0.981445312
# observer_front
vt 0.458007812 0.825195312
vt 0.473632812 0.825195312
vt 0.473632812 0.840820312
vt 0.458007812 0.840820312
# observer_top
vt 0.493164062 0.825195312
vt 0.508789062 0.825195312
vt 0.508789062 0.840820312
vt 0.493164062 0.840820312
# observer_side
vt 0.475585938 0.825195312
vt 0.491210938 0.825195312
vt 0.491210938 0.840820312
vt 0.475585938 0.840820312
v -1.125 3.375 1.3125
v -1.125 3.375 1.75
v -1.125 3.625 1.3125
v -1.125 3.625 1.75
v -1 3.375 1.3125
v -1 3.375 1.75
v -1 3.625 1.3125
v -1 3.625 1.75
v -1 2.01562 1
v -1 2.01562 2
v -1 2.01562 1
v -1 2.01562 2
v 0 2.01562 1
v 0 2.01562 2
v 0 2.01562 1
v 0 2.01562 2
v 1 1 1
v 0 1 1
v 1 1.125 1
v 0 1.125 1
v 1 1 2
v 0 1 2
v 1 1.125 2
v 0 1.125 2
v 0.625 1.125 1.375
v 0.5 1.125 1.375
v 0.625 1.5 1.375
v 0.5 1.5 1.375
v 0.625 1.125 1.625
v 0.5 1.125 1.625
v 0.625 1.5 1.625
v 0.5 1.5 1.625
v 0.6875 1.125 1.4375
v 0.4375 1.125 1.4375
v 0.6875 1.5 1.4375
v 0.4375 1.5 1.4375
v 0.6875 1.125 1.5625
v 0.4375 1.125 1.5625
v 0.6875 1.5 1.5625
v 0.4375 1.5 1.5625
v 0.625 1.125 1.4375
v 0.5 1.125 1.4375
v 0.625 1.4375 1.4375
v 0.5 1.4375 1.4375
v 0.625 1.125 1.5625
v 0.5 1.125 1.5625
v 0.625 1.4375 1.5625
v 0.5 1.4375 1.5625
v 0.875 1.125 1.375
v 0.75 1.125 1.375
v 0.875 1.5 1.375
v 0.75 1.5 1.375
v 0.875 1.125 1.625
v 0.75 1.125 1.625
v 0.875 1.5 1.625
v 0.75 1.5 1.625
v 0.9375 1.125 1.4375
v 0.6875 1.125 1.4375
v 0.9375 1.5 1.4375
v 0.6875 1.5 1.4375
v 0.9375 1.125 1.5625
v 0.6875 1.125 1.5625
v 0.9375 1.5 1.5625
v 0.6875 1.5 1.5625
v 0.875 1.125 1.4375
v 0.75 1.125 1.4375
v 0.875 1.4375 1.4375
v 0.75 1.4375 1.4375
v 0.875 1.125 1.5625
v 0.75 1.125 1.5625
v 0.875 1.4375 1.5625
v 0.75 1.4375 1.5625
v 0 3.375 1.3125
v 0 3.375 1.75
v 0 3.625 1.3125
v 0 3.625 1.75
v 0.125 3.375 1.3125
v 0.125 3.375 1.75
v 0.125 3.625 1.3125
v 0.125 3.625 1.75
v 1 1.01562 2
v 2 1.01562 2
v 1 1.01562 2
v 2 1.01562 2
v 1 1.01562 1
v 2 1.01562 1
v 1 1.01562 1
v 2 1.01562 1
v 2 0.015625 -1
v 2 0.015625 0
v 2 0.015625 -1
v 2 0.015625 0
v 3 0.015625 -1
v 3 0.015625 0
v 3 0.015625 -1
v 3 0.015625 0
v 2 0.015625 0
v 2 0.015625 1
v 2 0.015625 0
v 2 0.015625 1
v 3 0.015625 0
v 3 0.015625 1
v 3 0.015625 0
v 3 0.015625 1
v 2.01562 0 2
v 2.01562 0 1
v 2.01562 1 1
v 2.01562 1 2
v 2 0.015625 2
v 3 0.015625 2
v 2 0.015625 2
v 3 0.015625 2
v 2 0.015625 1
v 3 0.015625 1
v 2 0.015625 1
v 3 0.015625 1
v 0 3 -1
v 0 3 0
v 0 4 -1
v 0 4 0
v 1 3 -1
v 1 3 0
v 1 4 -1
v 1 4 0
v 0.1875 3.1875 -0.8125
v 0.1875 3.1875 -0.1875
v 0.1875 3.8125 -0.8125
v 0.1875 3.8125 -0.1875
v 0.8125 3.1875 -0.8125
v 0.8125 3.1875 -0.1875
v 0.8125 3.8125 -0.8125
v 0.8125 3.8125 -0.1875
v 0 4 -1
v 0 4 0
v 0 5 -1
v 0 5 0
v 1 4 -1
v 1 4 0
v 1 5 -1
v 1 5 0
v 0.1875 4.1875 -0.8125
v 0.1875 4.1875 -0.1875
v 0.1875 4.8125 -0.8125
v 0.1875 4.8125 -0.1875
v 0.8125 4.1875 -0.8125
v 0.8125 4.1875 -0.1875
v 0.8125 4.8125 -0.8125
v 0.8125 4.8125 -0.1875
v 0 3 0
v 0 3 1
v 0 4 0
v 0 4 1
v 1 3 0
v 1 3 1
v 1 4 0
v 1 4 1
v 0.1875 3.1875 0.1875
v 0.1875 3.1875 0.8125
v 0.1875 3.8125 0.1875
v 0.1875 3.8125 0.8125
v 0.8125 3.1875 0.1875
v 0.8125 3.1875 0.8125
v 0.8125 3.8125 0.1875
v 0.8125 3.8125 0.8125
v 0 4 0
v 0 4 1
v 0 5 0
v 0 5 1
v 1 4 0
v 1 4 1
v 1 5 0
v 1 5 1
v 0.1875 4.1875 0.1875
v 0.1875 4.1875 0.8125
v 0.1875 4.8125 0.1875
v 0.1875 4.8125 0.8125
v 0.8125 4.1875 0.1875
v 0.8125 4.1875 0.8125
v 0.8125 4.8125 0.1875
v 0.8125 4.8125 0.8125
v -3 2 -2
v -3 2 -1
v -3 3 -1
v -3 3 -2
v -2 2 -1
v -2 2 -2
v -2 3 -2
v -2 3 -1
v -3 2 0
v -3 3 0
v -2 2 0
v -2 3 0
v -3 2 1
v -3 3 1
v -2 2 1
v -2 3 1
v -3 2 2
v -3 3 2
v -2 2 2
v -2 3 2
v -1 2 -1
v -1 2 -2
v -1 3 -2
v -1 3 -1
v -1 2 0
v -1 3 0
v -1 2 1
v -1 3 1
v -1 2 2
v -1 3 2
v -1 4 -1
v -1 4 -2
v 0 3 -1
v 0 3 -2
v 0 4 -2
v 0 4 -1
v -1 5 -1
v -1 5 -2
v 0 5 -2
v 0 5 -1
v -1 6 -1
v -1 6 -2
v 0 6 -2
v 0 6 -1
v -1 4 0
v 0 3 0
v 0 4 0
v -1 5 0
v 0 5 0
v -1 6 0
v 0 6 0
v -1 4 1
v 0 3 1
v 0 4 1
v -1 5 1
v 0 5 1
v -1 6 1
v 0 6 1
v -1 1 1
v -1 1 2
v 0 1 2
v 0 1 1
v 0 2 1
v 0 2 2
v -1 4 2
v 0 3 2
v 0 4 2
v -1 5 2
v 0 5 2
v -1 6 2
v 0 6 2
v 0 1 -2
v 0 1 -1
v 0 2 -1
v 0 2 -2
v 1 1 -1
v 1 1 -2
v 1 2 -2
v 1 2 -1
v 1 3 -2
v 1 3 -1
v 0 0 -1
v 0 0 0
v 0 1 0
v 1 0 0
v 1 0 -1
v 1 1 0
v 0 0 1
v 0 0 2
v 1 0 2
v 1 0 1
v 1 1 1
v 1 1 2
v 1 2 2
v 1 2 1
v 1 3 1
v 1 3 2
v 2 2 -1
v 2 2 -2
v 2 3 -2
v 2 3 -1
v 2 0 0
v 2 0 -1
v 2 1 -1
v 2 1 0
v 1 2 0
v 2 2 0
v 1 3 0
v 2 3 0
v 2 1 1
v 2 2 1
v 2 3 1
v 2 0 2
v 2 0 1
v 2 1 2
v 2 2 2
v 2 3 2

g Sticky_Piston
usemtl Sticky_Piston
f 263/80/1 264/81/1 253/82/1 262/79/1
f 263/85/2 262/84/2 266/83/2 265/86/2
f 262/80/3 253/81/3 256/82/3 266/79/3
f 264/89/5 267/90/5 256/87/5 253/88/5
f 263/79/6 265/80/6 267/81/6 264/82/6

g Obsidian
usemtl Obsidian
f 253/76/1 254/77/1 255/78/1 252/75/1
f 253/75/2 252/78/2 257/77/2 256/76/2
f 252/76/3 255/77/3 258/78/3 257/75/3
f 256/75/4 257/76/4 258/77/4 259/78/4
f 253/75/6 256/76/6 259/77/6 254/78/6
f 254/76/1 213/77/1 214/78/1 255/75/1
f 255/76/3 214/77/3 260/78/3 258/75/3
f 213/75/5 261/76/5 260/77/5 214/78/5
f 254/75/6 259/76/6 261/77/6 213/78/6
f 244/76/1 246/77/1 233/78/1 243/75/1
f 244/75/2 243/78/2 275/77/2 274/76/2
f 243/76/3 233/77/3 276/78/3 275/75/3
f 246/75/5 277/76/5 276/77/5 233/78/5
f 244/75/6 274/76/6 277/77/6 246/78/6
f 267/76/1 286/77/1 259/78/1 256/75/1
f 256/76/3 259/77/3 278/78/3 284/75/3
f 285/75/4 284/76/4 278/77/4 287/78/4
f 286/76/1 288/77/1 261/78/1 259/75/1
f 287/75/4 278/76/4 281/77/4 289/78/4
f 288/75/5 289/76/5 281/77/5 261/78/5
f 272/76/1 275/77/1 286/78/1 267/75/1
f 272/75/2 267/78/2 285/77/2 290/76/2
f 290/75/4 285/76/4 287/77/4 291/78/4
f 272/75/6 290/76/6 291/77/6 275/78/6
f 275/76/1 276/77/1 288/78/1 286/75/1
f 291/75/4 287/76/4 289/77/4 292/78/4
f 276/75/5 292/76/5 289/77/5 288/78/5

g Redstone_Wire
usemtl Redstone_Wire
f 10/17/2 9/20/2 13/19/2 14/18/2
f 15/19/5 11/20/5 12/17/5 16/18/5
f 82/47/2 81/50/2 85/49/2 86/48/2
f 87/49/5 83/50/5 84/47/5 88/48/5
f 90/51/2 89/54/2 93/53/2 94/52/2
f 95/53/5 91/54/5 92/51/5 96/52/5
f 98/51/2 97/54/2 101/53/2 102/52/2
f 103/53/5 99/54/5 100/51/5 104/52/5
f 105/51/4 106/52/4 107/53/4 108/54/4
f 107/53/1 106/52/1 105/51/1 108/54/1
f 110/55/2 109/58/2 113/57/2 114/56/2
f 115/57/5 111/58/5 112/55/5 116/56/5

g Redstone_Torch_(inactive)
usemtl Redstone_Torch_(inactive)
f 27/29/4 31/30/4 29/27/4 25/28/4
f 28/30/1 26/27/1 30/28/1 32/29/1
f 35/30/3 33/27/3 34/28/3 36/29/3
f 39/29/6 40/30/6 38/27/6 37/28/6
f 47/33/5 43/34/5 44/31/5 48/32/5
f 42/35/2 41/38/2 45/37/2 46/36/2
f 51/29/4 55/30/4 53/27/4 49/28/4
f 52/30/1 50/27/1 54/28/1 56/29/1
f 59/30/3 57/27/3 58/28/3 60/29/3
f 63/29/6 64/30/6 62/27/6 61/28/6
f 71/33/5 67/34/5 68/31/5 72/32/5
f 66/35/2 65/38/2 69/37/2 70/36/2

g Stone_Button
usemtl Stone_Button
f 3/4/1 1/1/1 2/2/1 4/3/1
f 2/5/2 1/8/2 5/7/2 6/6/2
f 7/12/3 5/9/3 1/10/3 3/11/3
f 7/7/5 3/8/5 4/5/5 8/6/5
f 8/15/6 4/16/6 2/13/6 6/14/6
f 74/39/2 73/42/2 77/41/2 78/40/2
f 79/16/3 77/13/3 73/14/3 75/15/3
f 79/45/4 80/46/4 78/43/4 77/44/4
f 79/41/5 75/42/5 76/39/5 80/40/5
f 80/11/6 76/12/6 74/9/6 78/10/6

g Redstone_Repeater_(inactive)
usemtl Redstone_Repeater_(inactive)
f 19/24/3 17/21/3 18/22/3 20/23/3
f 18/25/2 17/24/2 21/23/2 22/26/2
f 19/23/4 23/24/4 21/21/4 17/22/4
f 23/23/6 24/24/6 22/21/6 21/22/6
f 23/23/5 19/24/5 20/25/5 24/26/5
f 20/24/1 18/21/1 22/22/1 24/23/1

g Block_of_Quartz
usemtl Block_of_Quartz
f 182/68/1 183/69/1 184/70/1 181/67/1
f 182/71/2 181/74/2 186/73/2 185/72/2
f 181/68/3 184/69/3 187/70/3 186/67/3
f 183/71/5 188/72/5 187/73/5 184/74/5
f 189/68/1 190/69/1 183/70/1 182/67/1
f 189/71/2 182/74/2 185/73/2 191/72/2
f 190/71/5 192/72/5 188/73/5 183/74/5
f 193/68/1 194/69/1 190/70/1 189/67/1
f 193/71/2 189/74/2 191/73/2 195/72/2
f 194/71/5 196/72/5 192/73/5 190/74/5
f 197/68/1 198/69/1 194/70/1 193/67/1
f 197/71/2 193/74/2 195/73/2 199/72/2
f 198/71/5 200/72/5 196/73/5 194/74/5
f 197/67/6 199/68/6 200/69/6 198/70/6
f 185/71/2 186/74/2 202/73/2 201/72/2
f 186/68/3 187/69/3 203/70/3 202/67/3
f 201/67/4 202/68/4 203/69/4 204/70/4
f 188/71/5 204/72/5 203/73/5 187/74/5
f 191/71/2 185/74/2 201/73/2 205/72/2
f 205/67/4 201/68/4 204/69/4 206/70/4
f 192/71/5 206/72/5 204/73/5 188/74/5
f 195/71/2 191/74/2 205/73/2 207/72/2
f 207/67/4 205/68/4 206/69/4 208/70/4
f 196/71/5 208/72/5 206/73/5 192/74/5
f 199/71/2 195/74/2 207/73/2 209/72/2
f 209/67/4 207/68/4 208/69/4 210/70/4
f 200/71/5 210/72/5 208/73/5 196/74/5
f 199/67/6 209/68/6 210/69/6 200/70/6
f 204/68/1 211/69/1 212/70/1 203/67/1
f 204/71/2 203/74/2 214/73/2 213/72/2
f 203/68/3 212/69/3 215/70/3 214/67/3
f 213/67/4 214/68/4 215/69/4 216/70/4
f 211/68/1 217/69/1 218/70/1 212/67/1
f 212/68/3 218/69/3 219/70/3 215/67/3
f 216/67/4 215/68/4 219/69/4 220/70/4
f 217/68/1 221/69/1 222/70/1 218/67/1
f 218/68/3 222/69/3 223/70/3 219/67/3
f 220/67/4 219/68/4 223/69/4 224/70/4
f 221/71/5 224/72/5 223/73/5 222/74/5
f 206/68/1 225/69/1 211/70/1 204/67/1
f 206/71/2 204/74/2 213/73/2 226/72/2
f 226/67/4 213/68/4 216/69/4 227/70/4
f 225/68/1 228/69/1 217/70/1 211/67/1
f 227/67/4 216/68/4 220/69/4 229/70/4
f 228/68/1 230/69/1 221/70/1 217/67/1
f 229/67/4 220/68/4 224/69/4 231/70/4
f 230/71/5 231/72/5 224/73/5 221/74/5
f 208/68/1 232/69/1 225/70/1 206/67/1
f 208/71/2 206/74/2 226/73/2 233/72/2
f 233/67/4 226/68/4 227/69/4 234/70/4
f 232/68/1 235/69/1 228/70/1 225/67/1
f 234/67/4 227/68/4 229/69/4 236/70/4
f 235/68/1 237/69/1 230/70/1 228/67/1
f 236/67/4 229/68/4 231/69/4 238/70/4
f 237/71/5 238/72/5 231/73/5 230/74/5
f 240/68/1 209/69/1 207/70/1 239/67/1
f 240/71/2 239/74/2 242/73/2 241/72/2
f 239/68/3 207/69/3 243/70/3 242/67/3
f 241/67/4 242/68/4 243/69/4 244/70/4
f 209/71/5 244/72/5 243/73/5 207/74/5
f 240/67/6 241/68/6 244/69/6 209/70/6
f 210/68/1 245/69/1 232/70/1 208/67/1
f 210/71/2 208/74/2 233/73/2 246/72/2
f 246/67/4 233/68/4 234/69/4 247/70/4
f 210/67/6 246/68/6 247/69/6 245/70/6
f 245/68/1 248/69/1 235/70/1 232/67/1
f 247/67/4 234/68/4 236/69/4 249/70/4
f 245/67/6 247/68/6 249/69/6 248/70/6
f 248/68/1 250/69/1 237/70/1 235/67/1
f 249/67/4 236/68/4 238/69/4 251/70/4
f 250/71/5 251/72/5 238/73/5 237/74/5
f 248/67/6 249/68/6 251/69/6 250/70/6
f 269/68/1 241/69/1 242/70/1 268/67/1
f 269/71/2 268/74/2 271/73/2 270/72/2
f 268/68/3 242/69/3 272/70/3 271/67/3
f 241/71/5 273/72/5 272/73/5 242/74/5
f 269/67/6 270/68/6 273/69/6 241/70/6
f 259/71/2 258/74/2 279/73/2 278/72/2
f 258/68/3 260/69/3 280/70/3 279/67/3
f 278/67/4 279/68/4 280/69/4 281/70/4
f 261/71/5 281/72/5 280/73/5 260/74/5
f 270/71/2 271/74/2 294/73/2 293/72/2
f 271/68/3 272/69/3 290/70/3 294/67/3
f 293/67/4 294/68/4 290/69/4 295/70/4
f 273/71/5 295/72/5 290/73/5 272/74/5
f 270/67/6 293/68/6 295/69/6 273/70/6
f 274/71/2 275/74/2 291/73/2 296/72/2
f 296/67/4 291/68/4 292/69/4 297/70/4
f 277/71/5 297/72/5 292/73/5 276/74/5
f 274/67/6 296/68/6 297/69/6 277/70/6

g Slime_Block
usemtl Slime_Block
f 118/59/2 117/62/2 121/61/2 122/60/2
f 123/62/3 121/59/3 117/60/3 119/61/3
f 123/61/4 124/62/4 122/59/4 121/60/4
f 127/66/1 125/63/1 126/64/1 128/65/1
f 126/63/2 125/66/2 129/65/2 130/64/2
f 131/66/3 129/63/3 125/64/3 127/65/3
f 131/65/4 132/66/4 130/63/4 129/64/4
f 131/65/5 127/66/5 128/63/5 132/64/5
f 132/65/6 128/66/6 126/63/6 130/64/6
f 134/59/2 133/62/2 137/61/2 138/60/2
f 139/62/3 137/59/3 133/60/3 135/61/3
f 139/61/4 140/62/4 138/59/4 137/60/4
f 139/61/5 135/62/5 136/59/5 140/60/5
f 143/66/1 141/63/1 142/64/1 144/65/1
f 142/63/2 141/66/2 145/65/2 146/64/2
f 147/66/3 145/63/3 141/64/3 143/65/3
f 147/65/4 148/66/4 146/63/4 145/64/4
f 147/65/5 143/66/5 144/63/5 148/64/5
f 148/65/6 144/66/6 142/63/6 146/64/6
f 150/59/2 149/62/2 153/61/2 154/60/2
f 155/62/3 153/59/3 149/60/3 151/61/3
f 155/61/4 156/62/4 154/59/4 153/60/4
f 156/61/6 152/62/6 150/59/6 154/60/6
f 159/66/1 157/63/1 158/64/1 160/65/1
f 158/63/2 157/66/2 161/65/2 162/64/2
f 163/66/3 161/63/3 157/64/3 159/65/3
f 163/65/4 164/66/4 162/63/4 161/64/4
f 163/65/5 159/66/5 160/63/5 164/64/5
f 164/65/6 160/66/6 158/63/6 162/64/6
f 166/59/2 165/62/2 169/61/2 170/60/2
f 171/62/3 169/59/3 165/60/3 167/61/3
f 171/61/4 172/62/4 170/59/4 169/60/4
f 171/61/5 167/62/5 168/59/5 172/60/5
f 172/61/6 168/62/6 166/59/6 170/60/6
f 175/66/1 173/63/1 174/64/1 176/65/1
f 174/63/2 173/66/2 177/65/2 178/64/2
f 179/66/3 177/63/3 173/64/3 175/65/3
f 179/65/4 180/66/4 178/63/4 177/64/4
f 179/65/5 175/66/5 176/63/5 180/64/5
f 180/65/6 176/66/6 174/63/6 178/64/6

g Observer
usemtl Observer
f 265/91/2 266/94/2 283/93/2 282/92/2
f 266/96/3 256/97/3 284/98/3 283/95/3
f 282/100/4 283/101/4 284/102/4 285/99/4
f 265/95/6 282/96/6 285/97/6 267/98/6
